

[code]General
Format                           : AVI
Format/Info                      : Audio Video Interleave
File size                        : 1.45 GiB
Duration                         : 2h 25mn
Overall bit rate                 : 1 426 Kbps

Video
ID                               : 0
Format                           : MPEG-4 Visual
Format profile                   : Advanced Simple@L5
Format settings, BVOP            : 2
Format settings, QPel            : No
Format settings, GMC             : No warppoints
Format settings, Matrix          : Default (H.263)
Codec ID                         : XVID
Codec ID/Hint                    : XviD
Duration                         : 2h 25mn
Bit rate                         : 1 033 Kbps
Width                            : 704 pixels
Height                           : 384 pixels
Display aspect ratio             : 16:9
Frame rate                       : 29.970 fps
Color space                      : YUV
Chroma subsampling               : 4:2:0
Bit depth                        : 8 bits
Scan type                        : Progressive
Compression mode                 : Lossy
Bits/(Pixel*Frame)               : 0.127
Stream size                      : 1.05 GiB (72%)
Writing library                  : XviD 1.2.1 (UTC 2008-12-04)

Audio
ID                               : 1
Format                           : AC-3
Format/Info                      : Audio Coding 3
Mode extension                   : CM (complete main)
Codec ID                         : 2000
Duration                         : 2h 25mn
Bit rate mode                    : Constant
Bit rate                         : 384 Kbps
Channel(s)                       : 6 channels
Channel positions                : Front: L C R, Side: L R, LFE
Sampling rate                    : 48.0 KHz
Bit depth                        : 16 bits
Compression mode                 : Lossy
Stream size                      : 401 MiB (27%)
Alignment                        : Aligned on interleaves
Interleave, duration             : 64 ms (1.92 video frames)
Interleave, preload duration     : 192 ms
Title                            : Striker[WBZ]  [/code]


[img]http://pic.phyrefile.com/s/sh/shahaz/2011/04/12/1_002.jpg[/img]
[img]http://pic.phyrefile.com/s/sh/shahaz/2011/04/12/2_002.jpg[/img]
[img]http://pic.phyrefile.com/s/sh/shahaz/2011/04/12/3_001.jpg[/img]
[img]http://pic.phyrefile.com/s/sh/shahaz/2011/04/12/4_001.jpg[/img]
[img]http://pic.phyrefile.com/s/sh/shahaz/2011/04/12/5_001.jpg[/img]
[img]http://pic.phyrefile.com/s/sh/shahaz/2011/04/12/6_001.jpg[/img]
[img]http://pic.phyrefile.com/s/sh/shahaz/2011/04/12/7_001.jpg[/img]
[img]http://pic.phyrefile.com/s/sh/shahaz/2011/04/12/8_001.jpg[/img]
[img]http://pic.phyrefile.com/s/sh/shahaz/2011/04/12/9_001.jpg[/img]
[img]http://pic.phyrefile.com/s/sh/shahaz/2011/04/12/10_001.jpg[/img]

